<?xml version="1.0" encoding="utf-8"?>
<svg version="1.1" xmlns:xlink="http://www.w3.org/1999/xlink" width="30px" height="32px" xmlns="http://www.w3.org/2000/svg">
  <g transform="matrix(1 0 0 1 -1021 -330 )">
    <path d="M 23.37890625 18.2708333333333  C 23.6263020833333 18.0069444444444  23.75 17.6944444444444  23.75 17.3333333333333  L 23.75 14.6666666666667  C 23.75 14.3055555555556  23.6263020833333 13.9930555555556  23.37890625 13.7291666666667  C 23.1315104166667 13.4652777777778  22.8385416666667 13.3333333333333  22.5 13.3333333333333  L 17.5 13.3333333333333  L 17.5 8  C 17.5 7.63888888888889  17.3763020833333 7.32638888888889  17.12890625 7.0625  C 16.8815104166667 6.79861111111111  16.5885416666667 6.66666666666667  16.25 6.66666666666667  L 13.75 6.66666666666667  C 13.4114583333333 6.66666666666667  13.1184895833333 6.79861111111111  12.87109375 7.0625  C 12.6236979166667 7.32638888888889  12.5 7.63888888888889  12.5 8  L 12.5 13.3333333333333  L 7.5 13.3333333333333  C 7.16145833333333 13.3333333333333  6.86848958333333 13.4652777777778  6.62109375 13.7291666666667  C 6.37369791666667 13.9930555555556  6.25 14.3055555555556  6.25 14.6666666666667  L 6.25 17.3333333333333  C 6.25 17.6944444444444  6.37369791666667 18.0069444444444  6.62109375 18.2708333333333  C 6.86848958333333 18.5347222222222  7.16145833333333 18.6666666666667  7.5 18.6666666666667  L 12.5 18.6666666666667  L 12.5 24  C 12.5 24.3611111111111  12.6236979166667 24.6736111111111  12.87109375 24.9375  C 13.1184895833333 25.2013888888889  13.4114583333333 25.3333333333333  13.75 25.3333333333333  L 16.25 25.3333333333333  C 16.5885416666667 25.3333333333333  16.8815104166667 25.2013888888889  17.12890625 24.9375  C 17.3763020833333 24.6736111111111  17.5 24.3611111111111  17.5 24  L 17.5 18.6666666666667  L 22.5 18.6666666666667  C 22.8385416666667 18.6666666666667  23.1315104166667 18.5347222222222  23.37890625 18.2708333333333  Z M 27.98828125 7.96875  C 29.3294270833333 10.4201388888889  30 13.0972222222222  30 16  C 30 18.9027777777778  29.3294270833333 21.5798611111111  27.98828125 24.03125  C 26.6471354166667 26.4826388888889  24.8274739583333 28.4236111111111  22.529296875 29.8541666666667  C 20.2311197916667 31.2847222222222  17.7213541666667 32  15 32  C 12.2786458333333 32  9.76888020833333 31.2847222222222  7.470703125 29.8541666666667  C 5.17252604166667 28.4236111111111  3.35286458333333 26.4826388888889  2.01171875 24.03125  C 0.670572916666667 21.5798611111111  0 18.9027777777778  0 16  C 0 13.0972222222222  0.670572916666667 10.4201388888889  2.01171875 7.96875  C 3.35286458333333 5.51736111111111  5.17252604166667 3.57638888888889  7.470703125 2.14583333333333  C 9.76888020833333 0.715277777777775  12.2786458333333 0  15 0  C 17.7213541666667 0  20.2311197916667 0.715277777777775  22.529296875 2.14583333333333  C 24.8274739583333 3.57638888888889  26.6471354166667 5.51736111111111  27.98828125 7.96875  Z " fill-rule="nonzero" fill="#70b603" stroke="none" transform="matrix(1 0 0 1 1021 330 )" />
  </g>
</svg>