<?xml version="1.0" encoding="utf-8"?>
<svg version="1.1" xmlns:xlink="http://www.w3.org/1999/xlink" width="29px" height="26px" xmlns="http://www.w3.org/2000/svg">
  <g transform="matrix(1 0 0 1 -1185 -330 )">
    <path d="M 27.4472950362521 0.159420289855071  C 27.8246886038297 -0.0434782608695681  28.191299498048 -0.0338164251207771  28.5471277189069 0.18840579710145  C 28.9029559397658 0.420289855072463  29.0485220301171 0.729468599033814  28.983825989961 1.11594202898551  L 24.8432794199665 23.3768115942029  C 24.7893660531697 23.6570048309179  24.61684327942 23.8743961352657  24.3257110987172 24.0289855072464  C 24.1747536716862 24.1062801932367  24.0076222346161 24.1449275362319  23.824316787507 24.1449275362319  C 23.705707380554 24.1449275362319  23.5763153002417 24.1207729468599  23.43614054657 24.0724637681159  L 14.9124372559955 20.9565217391304  L 10.0925822643614 25.695652173913  C 9.89849414389292 25.8985507246377  9.64510131994795 26  9.33240379252649 26  C 9.18144636549545 26  9.0574456218628 25.9806763285024  8.96040156162855 25.9420289855072  C 8.75553076780071 25.8743961352657  8.5937906674103 25.7608695652174  8.47518126045733 25.6014492753623  C 8.35657185350437 25.4420289855072  8.29726715002789 25.2657004830918  8.29726715002789 25.0724637681159  L 8.29726715002789 18.5217391304348  L 0.663134411600669 15.7246376811594  C 0.264175497304332 15.5893719806763  0.0485220301171221 15.3236714975845  0.0161740100390407 14.9275362318841  C -0.0161740100390407 14.5507246376812  0.156348763710727 14.2657004830918  0.533742331288344 14.0724637681159  L 27.4472950362521 0.159420289855071  Z M 15.0580033463469 19  L 23.0156162855549 21.9130434782609  L 26.5900725041829 2.73913043478261  L 3.39654210819855 14.7246376811594  L 8.83100948131623 16.7101449275362  L 22.7891801450084 7.44927536231884  L 15.0580033463469 19  Z " fill-rule="nonzero" fill="#000080" stroke="none" transform="matrix(1 0 0 1 1185 330 )" />
  </g>
</svg>