<?xml version="1.0" encoding="utf-8"?>
<svg version="1.1" xmlns:xlink="http://www.w3.org/1999/xlink" width="34px" height="33px" xmlns="http://www.w3.org/2000/svg">
  <g transform="matrix(1 0 0 1 -1235 -333 )">
    <path d="M 5.74521452145215 30.2118811881188  L 8.14653465346535 30.2118811881188  L 10.1887788778878 28.229702970297  L 4.91485148514851 23.1108910891089  L 2.87260726072607 25.0930693069307  L 2.87260726072607 27.4237623762376  L 5.74521452145215 27.4237623762376  L 5.74521452145215 30.2118811881188  Z M 19.7267326732673 10.3683168316832  C 19.8314631463146 10.2666666666667  19.8838283828383 10.1432343234323  19.8838283828383 9.9980198019802  C 19.8838283828383 9.67854785478548  19.7192519251925 9.51881188118812  19.390099009901 9.51881188118812  C 19.2404840484048 9.51881188118812  19.1133113311331 9.56963696369637  19.0085808580858 9.67128712871287  L 6.84488448844884 21.4772277227723  C 6.74015401540154 21.5788778877888  6.68778877887789 21.7023102310231  6.68778877887789 21.8475247524752  C 6.68778877887789 22.16699669967  6.85236523652365 22.3267326732673  7.18151815181518 22.3267326732673  C 7.33113311331133 22.3267326732673  7.45830583058306 22.2759075907591  7.56303630363036 22.1742574257426  L 19.7267326732673 10.3683168316832  Z M 0 23.9386138613861  L 18.6719471947195 5.81584158415842  L 28.0079207920792 14.8772277227723  L 9.33597359735974 33  L 0 33  L 0 23.9386138613861  Z M 33.1696369636964 5.92475247524752  C 33.7232123212321 6.49108910891089  34 7.15181518151815  34 7.90693069306931  C 34 8.67656765676568  33.7232123212321 9.33003300330033  33.1696369636964 9.86732673267327  L 29.4442244224422 13.4831683168317  L 20.1082508250825 4.42178217821782  L 23.8336633663366 0.827722772277226  C 24.3722772277228 0.275907590759073  25.0455445544554 0  25.8534653465347 0  C 26.6464246424643 0  27.3271727172717 0.275907590759073  27.8957095709571 0.827722772277226  L 33.1696369636964 5.92475247524752  Z " fill-rule="nonzero" fill="#000000" stroke="none" transform="matrix(1 0 0 1 1235 333 )" />
  </g>
</svg>