<?xml version="1.0" encoding="utf-8"?>
<svg version="1.1" xmlns:xlink="http://www.w3.org/1999/xlink" width="198px" height="40px" xmlns="http://www.w3.org/2000/svg">
  <defs>
    <mask fill="white" id="clip20">
      <path d="M 0 35  L 0 5  C 0 2.20000000000005  2.20000000000005 0  5 0  L 90.7777777777778 0  L 193 0  C 195.8 0  198 2.20000000000005  198 5  L 198 35  C 198 37.8  195.8 40  193 40  L 71.3333333333334 40  L 5 40  C 2.20000000000005 40  0 37.8  0 35  Z " fill-rule="evenodd" />
    </mask>
  </defs>
  <g transform="matrix(1 0 0 1 -887 -595 )">
    <path d="M 0 35  L 0 5  C 0 2.20000000000005  2.20000000000005 0  5 0  L 90.7777777777778 0  L 193 0  C 195.8 0  198 2.20000000000005  198 5  L 198 35  C 198 37.8  195.8 40  193 40  L 71.3333333333334 40  L 5 40  C 2.20000000000005 40  0 37.8  0 35  Z " fill-rule="nonzero" fill="#81d3f8" stroke="none" transform="matrix(1 0 0 1 887 595 )" />
    <path d="M 0 35  L 0 5  C 0 2.20000000000005  2.20000000000005 0  5 0  L 90.7777777777778 0  L 193 0  C 195.8 0  198 2.20000000000005  198 5  L 198 35  C 198 37.8  195.8 40  193 40  L 71.3333333333334 40  L 5 40  C 2.20000000000005 40  0 37.8  0 35  Z " stroke-width="2" stroke="#797979" fill="none" transform="matrix(1 0 0 1 887 595 )" mask="url(#clip20)" />
  </g>
</svg>