<?xml version="1.0" encoding="utf-8"?>
<svg version="1.1" xmlns:xlink="http://www.w3.org/1999/xlink" width="90px" height="33px" xmlns="http://www.w3.org/2000/svg">
  <defs>
    <mask fill="white" id="clip44">
      <path d="M 0 28.875  L 0 4.125  C 0 1.81500000000007  1.5714285714286 0  3.57142857142853 0  L 58.5 0  L 74.25 0  L 86.4285714285715 0  C 88.4285714285714 0  90 1.81500000000007  90 4.125  L 90 28.875  C 90 31.1849999999999  88.4285714285714 33  86.4285714285715 33  L 80.3846153846154 33  L 3.57142857142853 33  C 1.5714285714286 33  0 31.1849999999999  0 28.875  Z " fill-rule="evenodd" />
    </mask>
  </defs>
  <g transform="matrix(1 0 0 1 -991 -581 )">
    <path d="M 0 28.875  L 0 4.125  C 0 1.81500000000007  1.5714285714286 0  3.57142857142853 0  L 58.5 0  L 74.25 0  L 86.4285714285715 0  C 88.4285714285714 0  90 1.81500000000007  90 4.125  L 90 28.875  C 90 31.1849999999999  88.4285714285714 33  86.4285714285715 33  L 80.3846153846154 33  L 3.57142857142853 33  C 1.5714285714286 33  0 31.1849999999999  0 28.875  Z " fill-rule="nonzero" fill="#aaaaaa" stroke="none" transform="matrix(1 0 0 1 991 581 )" />
    <path d="M 0 28.875  L 0 4.125  C 0 1.81500000000007  1.5714285714286 0  3.57142857142853 0  L 58.5 0  L 74.25 0  L 86.4285714285715 0  C 88.4285714285714 0  90 1.81500000000007  90 4.125  L 90 28.875  C 90 31.1849999999999  88.4285714285714 33  86.4285714285715 33  L 80.3846153846154 33  L 3.57142857142853 33  C 1.5714285714286 33  0 31.1849999999999  0 28.875  Z " stroke-width="2" stroke="#555555" fill="none" transform="matrix(1 0 0 1 991 581 )" mask="url(#clip44)" />
  </g>
</svg>