<?xml version="1.0" encoding="utf-8"?>
<svg version="1.1" xmlns:xlink="http://www.w3.org/1999/xlink" width="400px" height="40px" xmlns="http://www.w3.org/2000/svg">
  <defs>
    <mask fill="white" id="clip24">
      <path d="M 0 35  L 0 5  C 0 2.19999999999999  6.28571428571429 0  14.2857142857143 0  L 385.714285714286 0  C 393.714285714286 0  400 2.19999999999999  400 5  L 400 35  C 400 37.8  393.714285714286 40  385.714285714286 40  L 215.918367346939 40  L 96.1904761904762 40  L 47.2108843537415 40  L 14.2857142857143 40  C 6.28571428571429 40  0 37.8  0 35  Z " fill-rule="evenodd" />
    </mask>
  </defs>
  <g transform="matrix(1 0 0 1 -100 -151 )">
    <path d="M 0 35  L 0 5  C 0 2.19999999999999  6.28571428571429 0  14.2857142857143 0  L 385.714285714286 0  C 393.714285714286 0  400 2.19999999999999  400 5  L 400 35  C 400 37.8  393.714285714286 40  385.714285714286 40  L 215.918367346939 40  L 96.1904761904762 40  L 47.2108843537415 40  L 14.2857142857143 40  C 6.28571428571429 40  0 37.8  0 35  Z " fill-rule="nonzero" fill="#ffffff" stroke="none" transform="matrix(1 0 0 1 100 151 )" />
    <path d="M 0 35  L 0 5  C 0 2.19999999999999  6.28571428571429 0  14.2857142857143 0  L 385.714285714286 0  C 393.714285714286 0  400 2.19999999999999  400 5  L 400 35  C 400 37.8  393.714285714286 40  385.714285714286 40  L 215.918367346939 40  L 96.1904761904762 40  L 47.2108843537415 40  L 14.2857142857143 40  C 6.28571428571429 40  0 37.8  0 35  Z " stroke-width="2" stroke="#ffffff" fill="none" transform="matrix(1 0 0 1 100 151 )" mask="url(#clip24)" />
  </g>
</svg>