<?xml version="1.0" encoding="utf-8"?>
<svg version="1.1" xmlns:xlink="http://www.w3.org/1999/xlink" width="34px" height="32px" xmlns="http://www.w3.org/2000/svg">
  <g transform="matrix(1 0 0 1 -46 -725 )">
    <path d="M 25.765625 28.9375  C 26.0244391025641 28.6736111111111  26.1538461538462 28.3611111111111  26.1538461538462 28  C 26.1538461538462 27.6388888888889  26.0244391025641 27.3263888888889  25.765625 27.0625  C 25.5068108974359 26.7986111111111  25.2003205128205 26.6666666666667  24.8461538461538 26.6666666666667  C 24.4919871794872 26.6666666666667  24.1854967948718 26.7986111111111  23.9266826923077 27.0625  C 23.6678685897436 27.3263888888889  23.5384615384615 27.6388888888889  23.5384615384615 28  C 23.5384615384615 28.3611111111111  23.6678685897436 28.6736111111111  23.9266826923077 28.9375  C 24.1854967948718 29.2013888888889  24.4919871794872 29.3333333333333  24.8461538461538 29.3333333333333  C 25.2003205128205 29.3333333333333  25.5068108974359 29.2013888888889  25.765625 28.9375  Z M 30.9963942307692 28.9375  C 31.2552083333333 28.6736111111111  31.3846153846154 28.3611111111111  31.3846153846154 28  C 31.3846153846154 27.6388888888889  31.2552083333333 27.3263888888889  30.9963942307692 27.0625  C 30.7375801282051 26.7986111111111  30.4310897435897 26.6666666666667  30.0769230769231 26.6666666666667  C 29.7227564102564 26.6666666666667  29.416266025641 26.7986111111111  29.1574519230769 27.0625  C 28.8986378205128 27.3263888888889  28.7692307692308 27.6388888888889  28.7692307692308 28  C 28.7692307692308 28.3611111111111  28.8986378205128 28.6736111111111  29.1574519230769 28.9375  C 29.416266025641 29.2013888888889  29.7227564102564 29.3333333333333  30.0769230769231 29.3333333333333  C 30.4310897435897 29.3333333333333  30.7375801282051 29.2013888888889  30.9963942307692 28.9375  Z M 33.4278846153846 21.9166666666667  C 33.8092948717949 22.3055555555556  34 22.7777777777778  34 23.3333333333333  L 34 30  C 34 30.5555555555556  33.8092948717949 31.0277777777778  33.4278846153846 31.4166666666667  C 33.0464743589744 31.8055555555556  32.5833333333333 32  32.0384615384615 32  L 1.96153846153846 32  C 1.41666666666667 32  0.953525641025641 31.8055555555556  0.572115384615385 31.4166666666667  C 0.190705128205128 31.0277777777778  0 30.5555555555556  0 30  L 0 23.3333333333333  C 0 22.7777777777778  0.190705128205128 22.3055555555556  0.572115384615385 21.9166666666667  C 0.953525641025641 21.5277777777778  1.41666666666667 21.3333333333333  1.96153846153846 21.3333333333333  L 11.4627403846154 21.3333333333333  L 14.2211538461538 24.1666666666667  C 15.011217948718 24.9444444444444  15.9375 25.3333333333333  17 25.3333333333333  C 18.0625 25.3333333333333  18.9887820512821 24.9444444444444  19.7788461538462 24.1666666666667  L 22.5576923076923 21.3333333333333  L 32.0384615384615 21.3333333333333  C 32.5833333333333 21.3333333333333  33.0464743589744 21.5277777777778  33.4278846153846 21.9166666666667  Z M 26.1538461538462 10.6666666666667  C 26.7259615384615 10.6666666666667  27.1278044871795 10.9375  27.359375 11.4791666666667  C 27.5909455128205 12.0486111111111  27.495592948718 12.5347222222222  27.0733173076923 12.9375  L 17.9194711538462 22.2708333333333  C 17.6742788461538 22.5347222222222  17.3677884615385 22.6666666666667  17 22.6666666666667  C 16.6322115384615 22.6666666666667  16.3257211538462 22.5347222222222  16.0805288461538 22.2708333333333  L 6.92668269230769 12.9375  C 6.50440705128205 12.5347222222222  6.40905448717949 12.0486111111111  6.640625 11.4791666666667  C 6.87219551282051 10.9375  7.27403846153846 10.6666666666667  7.84615384615385 10.6666666666667  L 13.0769230769231 10.6666666666667  L 13.0769230769231 1.33333333333333  C 13.0769230769231 0.972222222222218  13.2063301282051 0.659722222222218  13.4651442307692 0.395833333333332  C 13.7239583333333 0.131944444444446  14.0304487179487 0  14.3846153846154 0  L 19.6153846153846 0  C 19.9695512820513 0  20.2760416666667 0.131944444444446  20.5348557692308 0.395833333333332  C 20.7936698717949 0.659722222222218  20.9230769230769 0.972222222222218  20.9230769230769 1.33333333333333  L 20.9230769230769 10.6666666666667  L 26.1538461538462 10.6666666666667  Z " fill-rule="nonzero" fill="#95f204" stroke="none" transform="matrix(1 0 0 1 46 725 )" />
  </g>
</svg>