<?xml version="1.0" encoding="utf-8"?>
<svg version="1.1" xmlns:xlink="http://www.w3.org/1999/xlink" width="30px" height="32px" xmlns="http://www.w3.org/2000/svg">
  <g transform="matrix(1 0 0 1 -1190 -333 )">
    <path d="M 22.578125 1.21428571428572  L 28.671875 6.78571428571428  C 29.0364583333333 7.11904761904762  29.3489583333333 7.57142857142857  29.609375 8.14285714285714  C 29.8697916666667 8.71428571428572  30 9.23809523809524  30 9.71428571428572  L 30 30.2857142857143  C 30 30.7619047619048  29.8177083333333 31.1666666666667  29.453125 31.5  C 29.0885416666667 31.8333333333333  28.6458333333333 32  28.125 32  L 1.875 32  C 1.35416666666667 32  0.911458333333333 31.8333333333333  0.546875 31.5  C 0.182291666666667 31.1666666666667  0 30.7619047619048  0 30.2857142857143  L 0 1.71428571428572  C 0 1.23809523809524  0.182291666666667 0.833333333333332  0.546875 0.5  C 0.911458333333333 0.166666666666668  1.35416666666667 0  1.875 0  L 19.375 0  C 19.8958333333333 0  20.46875 0.11904761904762  21.09375 0.357142857142858  C 21.71875 0.595238095238095  22.2135416666667 0.88095238095238  22.578125 1.21428571428572  Z M 20.80078125 2.82142857142857  C 20.64453125 2.67857142857143  20.3776041666667 2.54761904761904  20 2.42857142857143  L 20 9.14285714285714  L 27.34375 9.14285714285714  C 27.2135416666667 8.79761904761904  27.0703125 8.55357142857143  26.9140625 8.41071428571428  L 20.80078125 2.82142857142857  Z M 3 29.7142857142857  L 27 29.7142857142857  L 27 11.4285714285714  L 19.375 11.4285714285714  C 18.8541666666667 11.4285714285714  18.4114583333333 11.2619047619048  18.046875 10.9285714285714  C 17.6822916666667 10.5952380952381  17.5 10.1904761904762  17.5 9.71428571428572  L 17.5 2.28571428571428  L 3 2.28571428571428  L 3 29.7142857142857  Z M 14.609375 14.875  C 15.3255208333333 16.8273809523809  16.2760416666667 18.2440476190476  17.4609375 19.125  C 17.890625 19.4345238095238  18.4375 19.7678571428571  19.1015625 20.125  C 19.8697916666667 20.0416666666667  20.6315104166667 20  21.38671875 20  C 23.30078125 20  24.453125 20.2916666666667  24.84375 20.875  C 25.0520833333333 21.1369047619048  25.0651041666667 21.4464285714286  24.8828125 21.8035714285714  C 24.8828125 21.8154761904762  24.8763020833333 21.8273809523809  24.86328125 21.8392857142857  L 24.82421875 21.875  L 24.82421875 21.8928571428571  C 24.74609375 22.3452380952381  24.2838541666667 22.5714285714286  23.4375 22.5714285714286  C 22.8125 22.5714285714286  22.0638020833333 22.4523809523809  21.19140625 22.2142857142857  C 20.3190104166667 21.9761904761905  19.47265625 21.6607142857143  18.65234375 21.2678571428571  C 15.7747395833333 21.5535714285714  13.22265625 22.047619047619  10.99609375 22.75  C 9.00390625 25.8690476190476  7.42838541666667 27.4285714285714  6.26953125 27.4285714285714  C 6.07421875 27.4285714285714  5.89192708333333 27.3869047619048  5.72265625 27.3035714285714  L 5.25390625 27.0892857142857  C 5.24088541666667 27.0773809523809  5.20182291666667 27.0476190476191  5.13671875 27  C 5.00651041666667 26.8809523809524  4.96744791666667 26.6666666666667  5.01953125 26.3571428571429  C 5.13671875 25.8809523809524  5.50130208333333 25.3363095238095  6.11328125 24.7232142857143  C 6.72526041666667 24.1101190476191  7.58463541666667 23.5357142857143  8.69140625 23  C 8.87369791666667 22.8928571428571  9.0234375 22.9285714285714  9.140625 23.1071428571429  C 9.16666666666667 23.1309523809524  9.1796875 23.1547619047619  9.1796875 23.1785714285714  C 9.85677083333334 22.1666666666667  10.5533854166667 20.9940476190476  11.26953125 19.6607142857143  C 12.1549479166667 18.0416666666667  12.83203125 16.4821428571429  13.30078125 14.9821428571429  C 12.98828125 14.0059523809524  12.7897135416667 13.0565476190476  12.705078125 12.1339285714286  C 12.6204427083333 11.2113095238095  12.6627604166667 10.452380952381  12.83203125 9.85714285714286  C 12.9752604166667 9.38095238095238  13.2486979166667 9.14285714285714  13.65234375 9.14285714285714  L 14.0625 9.14285714285714  L 14.08203125 9.14285714285714  C 14.3815104166667 9.14285714285714  14.609375 9.23214285714286  14.765625 9.41071428571428  C 15 9.66071428571428  15.05859375 10.0654761904762  14.94140625 10.625  C 14.9153645833333 10.6964285714286  14.8893229166667 10.7440476190476  14.86328125 10.7678571428571  C 14.8763020833333 10.8035714285714  14.8828125 10.8511904761905  14.8828125 10.9107142857143  L 14.8828125 11.4464285714286  C 14.8567708333333 12.9107142857143  14.765625 14.0535714285714  14.609375 14.875  Z M 7.177734375 25.1428571428571  C 6.70247395833333 25.6666666666667  6.38020833333333 26.1071428571429  6.2109375 26.4642857142857  C 6.88802083333333 26.1785714285714  7.77994791666667 25.2380952380952  8.88671875 23.6428571428571  C 8.22265625 24.1190476190476  7.65299479166667 24.6190476190476  7.177734375 25.1428571428571  Z M 13.984375 10  L 13.984375 10.0357142857143  C 13.7890625 10.5357142857143  13.7760416666667 11.3214285714286  13.9453125 12.3928571428571  C 13.9583333333333 12.3095238095238  14.00390625 12.047619047619  14.08203125 11.6071428571429  C 14.08203125 11.5714285714286  14.1276041666667 11.3154761904762  14.21875 10.8392857142857  C 14.2317708333333 10.7916666666667  14.2578125 10.7440476190476  14.296875 10.6964285714286  C 14.2838541666667 10.6845238095238  14.27734375 10.672619047619  14.27734375 10.6607142857143  C 14.2643229166667 10.6369047619048  14.2578125 10.6190476190476  14.2578125 10.6071428571429  C 14.2447916666667 10.3452380952381  14.16015625 10.1309523809524  14.00390625 9.96428571428572  C 14.00390625 9.97619047619047  13.9973958333333 9.98809523809524  13.984375 10  Z M 12.44140625 20.3571428571429  C 12.05078125 21.0238095238095  11.7578125 21.5178571428571  11.5625 21.8392857142857  C 13.3203125 21.1964285714286  15.1692708333333 20.7142857142857  17.109375 20.3928571428571  C 17.0833333333333 20.3809523809524  16.9986979166667 20.3244047619048  16.85546875 20.2232142857143  C 16.7122395833333 20.1220238095238  16.6080729166667 20.0416666666667  16.54296875 19.9821428571429  C 15.5533854166667 19.1845238095238  14.7265625 18.1369047619048  14.0625 16.8392857142857  C 13.7109375 17.8630952380952  13.1705729166667 19.0357142857143  12.44140625 20.3571428571429  Z M 24.21875 21.6071428571429  C 24.21875 21.5952380952381  24.2057291666667 21.5773809523809  24.1796875 21.5535714285714  C 23.8671875 21.2678571428571  22.9557291666667 21.125  21.4453125 21.125  C 22.4348958333333 21.4583333333333  23.2421875 21.625  23.8671875 21.625  C 24.0494791666667 21.625  24.1666666666667 21.6190476190476  24.21875 21.6071428571429  Z " fill-rule="nonzero" fill="#000000" stroke="none" transform="matrix(1 0 0 1 1190 333 )" />
  </g>
</svg>