<?xml version="1.0" encoding="utf-8"?>
<svg version="1.1" xmlns:xlink="http://www.w3.org/1999/xlink" width="255px" height="40px" xmlns="http://www.w3.org/2000/svg">
  <defs>
    <mask fill="white" id="clip23">
      <path d="M 0 35  L 0 5  C 0 2.19999999999999  4.00714285714286 0  9.10714285714286 0  L 245.892857142857 0  C 250.992857142857 0  255 2.19999999999999  255 5  L 255 35  C 255 37.8  250.992857142857 40  245.892857142857 40  L 137.647959183673 40  L 61.3214285714286 40  L 30.0969387755102 40  L 9.10714285714286 40  C 4.00714285714286 40  0 37.8  0 35  Z " fill-rule="evenodd" />
    </mask>
  </defs>
  <g transform="matrix(1 0 0 1 -153 -595 )">
    <path d="M 0 35  L 0 5  C 0 2.19999999999999  4.00714285714286 0  9.10714285714286 0  L 245.892857142857 0  C 250.992857142857 0  255 2.19999999999999  255 5  L 255 35  C 255 37.8  250.992857142857 40  245.892857142857 40  L 137.647959183673 40  L 61.3214285714286 40  L 30.0969387755102 40  L 9.10714285714286 40  C 4.00714285714286 40  0 37.8  0 35  Z " fill-rule="nonzero" fill="#ffffff" stroke="none" transform="matrix(1 0 0 1 153 595 )" />
    <path d="M 0 35  L 0 5  C 0 2.19999999999999  4.00714285714286 0  9.10714285714286 0  L 245.892857142857 0  C 250.992857142857 0  255 2.19999999999999  255 5  L 255 35  C 255 37.8  250.992857142857 40  245.892857142857 40  L 137.647959183673 40  L 61.3214285714286 40  L 30.0969387755102 40  L 9.10714285714286 40  C 4.00714285714286 40  0 37.8  0 35  Z " stroke-width="2" stroke="#ffffff" fill="none" transform="matrix(1 0 0 1 153 595 )" mask="url(#clip23)" />
  </g>
</svg>