<?xml version="1.0" encoding="utf-8"?>
<svg version="1.1" xmlns:xlink="http://www.w3.org/1999/xlink" width="87px" height="41px" xmlns="http://www.w3.org/2000/svg">
  <defs>
    <mask fill="white" id="clip30">
      <path d="M 0 35.875  L 0 5.125  C 0 2.25500000000009  1.51904761904764 0  3.45238095238091 0  L 56.55 0  L 71.775 0  L 83.5476190476191 0  C 85.4809523809524 0  87 2.25500000000009  87 5.125  L 87 35.875  C 87 38.7449999999999  85.4809523809524 41  83.5476190476191 41  L 77.7051282051282 41  L 3.45238095238091 41  C 1.51904761904764 41  0 38.7449999999999  0 35.875  Z " fill-rule="evenodd" />
    </mask>
  </defs>
  <g transform="matrix(1 0 0 1 -989 -621 )">
    <path d="M 0 35.875  L 0 5.125  C 0 2.25500000000009  1.51904761904764 0  3.45238095238091 0  L 56.55 0  L 71.775 0  L 83.5476190476191 0  C 85.4809523809524 0  87 2.25500000000009  87 5.125  L 87 35.875  C 87 38.7449999999999  85.4809523809524 41  83.5476190476191 41  L 77.7051282051282 41  L 3.45238095238091 41  C 1.51904761904764 41  0 38.7449999999999  0 35.875  Z " fill-rule="nonzero" fill="#80ffff" stroke="none" transform="matrix(1 0 0 1 989 621 )" />
    <path d="M 0 35.875  L 0 5.125  C 0 2.25500000000009  1.51904761904764 0  3.45238095238091 0  L 56.55 0  L 71.775 0  L 83.5476190476191 0  C 85.4809523809524 0  87 2.25500000000009  87 5.125  L 87 35.875  C 87 38.7449999999999  85.4809523809524 41  83.5476190476191 41  L 77.7051282051282 41  L 3.45238095238091 41  C 1.51904761904764 41  0 38.7449999999999  0 35.875  Z " stroke-width="2" stroke="#555555" fill="none" transform="matrix(1 0 0 1 989 621 )" mask="url(#clip30)" />
  </g>
</svg>