<?xml version="1.0" encoding="utf-8"?>
<svg version="1.1" xmlns:xlink="http://www.w3.org/1999/xlink" width="158px" height="49px" xmlns="http://www.w3.org/2000/svg">
  <defs>
    <mask fill="white" id="clip13">
      <path d="M 0 42.875  L 0 6.125  C 0 2.69499999999999  2.48285714285715 0  5.64285714285714 0  L 152.357142857143 0  C 155.517142857143 0  158 2.69499999999999  158 6.125  L 158 42.875  C 158 46.305  155.517142857143 49  152.357142857143 49  L 85.2877551020408 49  L 37.9952380952381 49  L 18.6482993197279 49  L 5.64285714285714 49  C 2.48285714285715 49  0 46.305  0 42.875  Z " fill-rule="evenodd" />
    </mask>
  </defs>
  <g transform="matrix(1 0 0 1 -31 -325 )">
    <path d="M 0 42.875  L 0 6.125  C 0 2.69499999999999  2.48285714285715 0  5.64285714285714 0  L 152.357142857143 0  C 155.517142857143 0  158 2.69499999999999  158 6.125  L 158 42.875  C 158 46.305  155.517142857143 49  152.357142857143 49  L 85.2877551020408 49  L 37.9952380952381 49  L 18.6482993197279 49  L 5.64285714285714 49  C 2.48285714285715 49  0 46.305  0 42.875  Z " fill-rule="nonzero" fill="#ffffff" stroke="none" transform="matrix(1 0 0 1 31 325 )" />
    <path d="M 0 42.875  L 0 6.125  C 0 2.69499999999999  2.48285714285715 0  5.64285714285714 0  L 152.357142857143 0  C 155.517142857143 0  158 2.69499999999999  158 6.125  L 158 42.875  C 158 46.305  155.517142857143 49  152.357142857143 49  L 85.2877551020408 49  L 37.9952380952381 49  L 18.6482993197279 49  L 5.64285714285714 49  C 2.48285714285715 49  0 46.305  0 42.875  Z " stroke-width="2" stroke="#ffffff" fill="none" transform="matrix(1 0 0 1 31 325 )" mask="url(#clip13)" />
  </g>
</svg>