<?xml version="1.0" encoding="utf-8"?>
<svg version="1.1" xmlns:xlink="http://www.w3.org/1999/xlink" width="248px" height="40px" xmlns="http://www.w3.org/2000/svg">
  <defs>
    <mask fill="white" id="clip12">
      <path d="M 0 35  L 0 5  C 0 2.19999999999999  3.89714285714286 0  8.85714285714286 0  L 239.142857142857 0  C 244.102857142857 0  248 2.19999999999999  248 5  L 248 35  C 248 37.8  244.102857142857 40  239.142857142857 40  L 133.869387755102 40  L 59.6380952380952 40  L 29.2707482993197 40  L 8.85714285714286 40  C 3.89714285714286 40  0 37.8  0 35  Z " fill-rule="evenodd" />
    </mask>
  </defs>
  <g transform="matrix(1 0 0 1 -31 -270 )">
    <path d="M 0 35  L 0 5  C 0 2.19999999999999  3.89714285714286 0  8.85714285714286 0  L 239.142857142857 0  C 244.102857142857 0  248 2.19999999999999  248 5  L 248 35  C 248 37.8  244.102857142857 40  239.142857142857 40  L 133.869387755102 40  L 59.6380952380952 40  L 29.2707482993197 40  L 8.85714285714286 40  C 3.89714285714286 40  0 37.8  0 35  Z " fill-rule="nonzero" fill="#ffffff" stroke="none" transform="matrix(1 0 0 1 31 270 )" />
    <path d="M 0 35  L 0 5  C 0 2.19999999999999  3.89714285714286 0  8.85714285714286 0  L 239.142857142857 0  C 244.102857142857 0  248 2.19999999999999  248 5  L 248 35  C 248 37.8  244.102857142857 40  239.142857142857 40  L 133.869387755102 40  L 59.6380952380952 40  L 29.2707482993197 40  L 8.85714285714286 40  C 3.89714285714286 40  0 37.8  0 35  Z " stroke-width="2" stroke="#ffffff" fill="none" transform="matrix(1 0 0 1 31 270 )" mask="url(#clip12)" />
  </g>
</svg>