<?xml version="1.0" encoding="utf-8"?>
<svg version="1.1" xmlns:xlink="http://www.w3.org/1999/xlink" width="236px" height="40px" xmlns="http://www.w3.org/2000/svg">
  <defs>
    <mask fill="white" id="clip29">
      <path d="M 0 35  L 0 5  C 0 2.19999999999999  3.70857142857143 0  8.42857142857143 0  L 227.571428571429 0  C 232.291428571429 0  236 2.19999999999999  236 5  L 236 35  C 236 37.8  232.291428571429 40  227.571428571429 40  L 127.391836734694 40  L 56.7523809523809 40  L 27.8544217687075 40  L 8.42857142857143 40  C 3.70857142857143 40  0 37.8  0 35  Z " fill-rule="evenodd" />
    </mask>
  </defs>
  <g transform="matrix(1 0 0 1 -159 -595 )">
    <path d="M 0 35  L 0 5  C 0 2.19999999999999  3.70857142857143 0  8.42857142857143 0  L 227.571428571429 0  C 232.291428571429 0  236 2.19999999999999  236 5  L 236 35  C 236 37.8  232.291428571429 40  227.571428571429 40  L 127.391836734694 40  L 56.7523809523809 40  L 27.8544217687075 40  L 8.42857142857143 40  C 3.70857142857143 40  0 37.8  0 35  Z " fill-rule="nonzero" fill="#ffffff" stroke="none" transform="matrix(1 0 0 1 159 595 )" />
    <path d="M 0 35  L 0 5  C 0 2.19999999999999  3.70857142857143 0  8.42857142857143 0  L 227.571428571429 0  C 232.291428571429 0  236 2.19999999999999  236 5  L 236 35  C 236 37.8  232.291428571429 40  227.571428571429 40  L 127.391836734694 40  L 56.7523809523809 40  L 27.8544217687075 40  L 8.42857142857143 40  C 3.70857142857143 40  0 37.8  0 35  Z " stroke-width="2" stroke="#ffffff" fill="none" transform="matrix(1 0 0 1 159 595 )" mask="url(#clip29)" />
  </g>
</svg>