<?xml version="1.0" encoding="utf-8"?>
<svg version="1.1" xmlns:xlink="http://www.w3.org/1999/xlink" width="28px" height="33px" xmlns="http://www.w3.org/2000/svg">
  <g transform="matrix(1 0 0 1 -1021 -416 )">
    <path d="M 21.8203125 18.841796875  C 22.0512152777778 18.5696614583333  22.1666666666667 18.2473958333333  22.1666666666667 17.875  L 22.1666666666667 15.125  C 22.1666666666667 14.7526041666667  22.0512152777778 14.4303385416667  21.8203125 14.158203125  C 21.5894097222222 13.8860677083333  21.3159722222222 13.75  21 13.75  L 16.3333333333333 13.75  L 16.3333333333333 8.25  C 16.3333333333333 7.87760416666666  16.2178819444444 7.55533854166666  15.9869791666667 7.283203125  C 15.7560763888889 7.01106770833333  15.4826388888889 6.875  15.1666666666667 6.875  L 12.8333333333333 6.875  C 12.5173611111111 6.875  12.2439236111111 7.01106770833333  12.0130208333333 7.283203125  C 11.7821180555556 7.55533854166666  11.6666666666667 7.87760416666666  11.6666666666667 8.25  L 11.6666666666667 13.75  L 7 13.75  C 6.68402777777778 13.75  6.41059027777778 13.8860677083333  6.1796875 14.158203125  C 5.94878472222222 14.4303385416667  5.83333333333333 14.7526041666667  5.83333333333333 15.125  L 5.83333333333333 17.875  C 5.83333333333333 18.2473958333333  5.94878472222222 18.5696614583333  6.1796875 18.841796875  C 6.41059027777778 19.1139322916667  6.68402777777778 19.25  7 19.25  L 11.6666666666667 19.25  L 11.6666666666667 24.75  C 11.6666666666667 25.1223958333333  11.7821180555556 25.4446614583333  12.0130208333333 25.716796875  C 12.2439236111111 25.9889322916667  12.5173611111111 26.125  12.8333333333333 26.125  L 15.1666666666667 26.125  C 15.4826388888889 26.125  15.7560763888889 25.9889322916667  15.9869791666667 25.716796875  C 16.2178819444444 25.4446614583333  16.3333333333333 25.1223958333333  16.3333333333333 24.75  L 16.3333333333333 19.25  L 21 19.25  C 21.3159722222222 19.25  21.5894097222222 19.1139322916667  21.8203125 18.841796875  Z M 26.1223958333333 8.2177734375  C 27.3741319444444 10.7457682291667  28 13.5065104166667  28 16.5  C 28 19.4934895833333  27.3741319444444 22.2542317708333  26.1223958333333 24.7822265625  C 24.8706597222222 27.3102213541667  23.1723090277778 29.3118489583333  21.02734375 30.787109375  C 18.8823784722222 32.2623697916667  16.5399305555556 33  14 33  C 11.4600694444444 33  9.11762152777778 32.2623697916667  6.97265625 30.787109375  C 4.82769097222222 29.3118489583333  3.12934027777778 27.3102213541667  1.87760416666667 24.7822265625  C 0.625868055555555 22.2542317708333  0 19.4934895833333  0 16.5  C 0 13.5065104166667  0.625868055555555 10.7457682291667  1.87760416666667 8.2177734375  C 3.12934027777778 5.68977864583333  4.82769097222222 3.68815104166666  6.97265625 2.212890625  C 9.11762152777778 0.73763020833333  11.4600694444444 0  14 0  C 16.5399305555556 0  18.8823784722222 0.73763020833333  21.02734375 2.212890625  C 23.1723090277778 3.68815104166666  24.8706597222222 5.68977864583333  26.1223958333333 8.2177734375  Z " fill-rule="nonzero" fill="#70b603" stroke="none" transform="matrix(1 0 0 1 1021 416 )" />
  </g>
</svg>