<?xml version="1.0" encoding="utf-8"?>
<svg version="1.1" xmlns:xlink="http://www.w3.org/1999/xlink" width="110px" height="42px" xmlns="http://www.w3.org/2000/svg">
  <defs>
    <mask fill="white" id="clip8">
      <path d="M 0 36.75  L 0 5.25  C 0 2.31000000000009  1.92063492063495 0  4.36507936507939 0  L 105.634920634921 0  C 108.079365079365 0  110 2.31000000000009  110 5.25  L 110 36.75  C 110 39.6899999999999  108.079365079365 42  105.634920634921 42  L 98.2478632478633 42  L 77 42  L 47.2083333333334 42  L 44.9166666666667 42  L 4.36507936507939 42  C 1.92063492063495 42  0 39.6899999999999  0 36.75  Z " fill-rule="evenodd" />
    </mask>
  </defs>
  <g transform="matrix(1 0 0 1 -490 -341 )">
    <path d="M 0 36.75  L 0 5.25  C 0 2.31000000000009  1.92063492063495 0  4.36507936507939 0  L 105.634920634921 0  C 108.079365079365 0  110 2.31000000000009  110 5.25  L 110 36.75  C 110 39.6899999999999  108.079365079365 42  105.634920634921 42  L 98.2478632478633 42  L 77 42  L 47.2083333333334 42  L 44.9166666666667 42  L 4.36507936507939 42  C 1.92063492063495 42  0 39.6899999999999  0 36.75  Z " fill-rule="nonzero" fill="#80ffff" stroke="none" transform="matrix(1 0 0 1 490 341 )" />
    <path d="M 0 36.75  L 0 5.25  C 0 2.31000000000009  1.92063492063495 0  4.36507936507939 0  L 105.634920634921 0  C 108.079365079365 0  110 2.31000000000009  110 5.25  L 110 36.75  C 110 39.6899999999999  108.079365079365 42  105.634920634921 42  L 98.2478632478633 42  L 77 42  L 47.2083333333334 42  L 44.9166666666667 42  L 4.36507936507939 42  C 1.92063492063495 42  0 39.6899999999999  0 36.75  Z " stroke-width="2" stroke="#00ffff" fill="none" transform="matrix(1 0 0 1 490 341 )" mask="url(#clip8)" />
  </g>
</svg>