<?xml version="1.0" encoding="utf-8"?>
<svg version="1.1" xmlns:xlink="http://www.w3.org/1999/xlink" width="25px" height="26px" xmlns="http://www.w3.org/2000/svg">
  <g transform="matrix(1 0 0 1 -14 -157 )">
    <path d="M 8.40541294642857 9.30143229166667  C 8.75418526785714 9.724609375  8.92857142857143 10.2352430555556  8.92857142857143 10.8333333333333  C 8.92857142857143 11.4314236111111  8.75418526785714 11.9420572916667  8.40541294642857 12.365234375  C 8.056640625 12.7884114583333  7.63578869047619 13  7.14285714285714 13  C 6.6499255952381 13  6.22907366071429 12.7884114583333  5.88030133928571 12.365234375  C 5.53152901785714 11.9420572916667  5.35714285714286 11.4314236111111  5.35714285714286 10.8333333333333  C 5.35714285714286 10.2352430555556  5.53152901785714 9.724609375  5.88030133928571 9.30143229166667  C 6.22907366071429 8.87825520833333  6.6499255952381 8.66666666666667  7.14285714285714 8.66666666666667  C 7.63578869047619 8.66666666666667  8.056640625 8.87825520833333  8.40541294642857 9.30143229166667  Z M 13.7625558035714 9.30143229166667  C 14.111328125 9.724609375  14.2857142857143 10.2352430555556  14.2857142857143 10.8333333333333  C 14.2857142857143 11.4314236111111  14.111328125 11.9420572916667  13.7625558035714 12.365234375  C 13.4137834821429 12.7884114583333  12.992931547619 13  12.5 13  C 12.007068452381 13  11.5862165178571 12.7884114583333  11.2374441964286 12.365234375  C 10.888671875 11.9420572916667  10.7142857142857 11.4314236111111  10.7142857142857 10.8333333333333  C 10.7142857142857 10.2352430555556  10.888671875 9.724609375  11.2374441964286 9.30143229166667  C 11.5862165178571 8.87825520833333  12.007068452381 8.66666666666667  12.5 8.66666666666667  C 12.992931547619 8.66666666666667  13.4137834821429 8.87825520833333  13.7625558035714 9.30143229166667  Z M 19.1196986607143 9.30143229166667  C 19.4684709821429 9.724609375  19.6428571428571 10.2352430555556  19.6428571428571 10.8333333333333  C 19.6428571428571 11.4314236111111  19.4684709821429 11.9420572916667  19.1196986607143 12.365234375  C 18.7709263392857 12.7884114583333  18.3500744047619 13  17.8571428571429 13  C 17.3642113095238 13  16.943359375 12.7884114583333  16.5945870535714 12.365234375  C 16.2458147321429 11.9420572916667  16.0714285714286 11.4314236111111  16.0714285714286 10.8333333333333  C 16.0714285714286 10.2352430555556  16.2458147321429 9.724609375  16.5945870535714 9.30143229166667  C 16.943359375 8.87825520833333  17.3642113095238 8.66666666666667  17.8571428571429 8.66666666666667  C 18.3500744047619 8.66666666666667  18.7709263392857 8.87825520833333  19.1196986607143 9.30143229166667  Z M 17.822265625 3.34309895833333  C 16.1714099702381 2.55881076388889  14.3973214285714 2.16666666666667  12.5 2.16666666666667  C 10.6026785714286 2.16666666666667  8.82859002976191 2.55881076388889  7.177734375 3.34309895833333  C 5.52687872023809 4.12738715277778  4.21549479166667 5.18532986111111  3.24358258928571 6.51692708333333  C 2.27167038690476 7.84852430555555  1.78571428571429 9.28732638888889  1.78571428571429 10.8333333333333  C 1.78571428571429 12.0972222222222  2.11821056547619 13.3018663194444  2.783203125 14.447265625  C 3.44819568452381 15.5926649305556  4.38523065476191 16.5828993055556  5.59430803571429 17.41796875  L 6.80803571428571 18.2643229166667  L 6.43136160714286 19.8893229166667  C 6.20814732142857 20.9162326388889  5.88262648809524 21.88671875  5.45479910714286 22.80078125  C 6.86848958333333 22.08984375  8.14732142857143 21.125  9.29129464285714 19.90625  L 9.89118303571429 19.2630208333333  L 10.6863839285714 19.3645833333333  C 11.328125 19.4548611111111  11.9326636904762 19.5  12.5 19.5  C 14.3973214285714 19.5  16.1714099702381 19.1078559027778  17.822265625 18.3235677083333  C 19.4731212797619 17.5392795138889  20.7845052083333 16.4813368055556  21.7564174107143 15.1497395833333  C 22.7283296130952 13.8181423611111  23.2142857142857 12.3793402777778  23.2142857142857 10.8333333333333  C 23.2142857142857 9.28732638888889  22.7283296130952 7.84852430555555  21.7564174107143 6.51692708333333  C 20.7845052083333 5.18532986111111  19.4731212797619 4.12738715277778  17.822265625 3.34309895833333  Z M 24.0094866071429 6.626953125  C 24.6698288690476 7.96419270833333  25 9.36631944444444  25 10.8333333333333  C 25 12.796875  24.4419642857143 14.6108940972222  23.3258928571429 16.275390625  C 22.2098214285714 17.9398871527778  20.6938244047619 19.2545572916667  18.7779017857143 20.2194010416667  C 16.8619791666667 21.1842447916667  14.7693452380952 21.6666666666667  12.5 21.6666666666667  C 11.8489583333333 21.6666666666667  11.1746651785714 21.6215277777778  10.4771205357143 21.53125  C 8.63560267857143 23.5060763888889  6.49646577380952 24.8715277777778  4.05970982142857 25.6276041666667  C 3.60398065476191 25.7855902777778  3.07384672619048 25.9097222222222  2.46930803571429 26  L 2.39955357142857 26  C 2.26004464285714 26  2.13448660714286 25.9407552083333  2.02287946428571 25.822265625  C 1.91127232142857 25.7037760416667  1.83686755952381 25.5486111111111  1.79966517857143 25.3567708333333  L 1.79966517857143 25.33984375  C 1.77176339285714 25.2947048611111  1.76943824404762 25.2269965277778  1.79268973214286 25.13671875  C 1.8159412202381 25.0464409722222  1.82524181547619 24.9900173611111  1.82059151785714 24.9674479166667  C 1.8159412202381 24.9448784722222  1.83686755952381 24.8912760416667  1.88337053571429 24.806640625  L 1.96707589285714 24.654296875  C 1.96707589285714 24.654296875  1.99962797619048 24.6063368055556  2.06473214285714 24.5104166666667  C 2.12983630952381 24.4144965277778  2.16703869047619 24.3637152777778  2.17633928571429 24.3580729166667  C 2.24144345238095 24.2677951388889  2.38560267857143 24.0731336805556  2.60881696428571 23.7740885416667  C 2.83203125 23.4750434027778  2.99246651785714 23.2606336805556  3.09012276785714 23.130859375  C 3.18777901785714 23.0010850694444  3.33193824404762 22.7782118055556  3.52260044642857 22.4622395833333  C 3.71326264880952 22.1462673611111  3.86439732142857 21.8585069444444  3.97600446428571 21.5989583333333  C 4.08761160714286 21.3394097222222  4.21316964285714 21.0065104166667  4.35267857142857 20.6002604166667  C 4.4921875 20.1940104166667  4.61309523809524 19.7651909722222  4.71540178571429 19.3138020833333  C 3.25520833333333 18.3094618055556  2.10425967261905 17.0681423611111  1.26255580357143 15.58984375  C 0.420851934523809 14.1115451388889  0 12.5260416666667  0 10.8333333333333  C 0 9.36631944444444  0.330171130952381 7.96419270833333  0.990513392857143 6.626953125  C 1.6508556547619 5.28971354166667  2.5390625 4.13585069444444  3.65513392857143 3.16536458333333  C 4.77120535714286 2.19487847222222  6.10119047619048 1.42469618055555  7.64508928571429 0.854817708333332  C 9.1889880952381 0.28493923611111  10.8072916666667 0  12.5 0  C 14.1927083333333 0  15.8110119047619 0.28493923611111  17.3549107142857 0.854817708333332  C 18.8988095238095 1.42469618055555  20.2287946428571 2.19487847222222  21.3448660714286 3.16536458333333  C 22.4609375 4.13585069444444  23.3491443452381 5.28971354166667  24.0094866071429 6.626953125  Z " fill-rule="nonzero" fill="#000000" stroke="none" transform="matrix(1 0 0 1 14 157 )" />
  </g>
</svg>