<?xml version="1.0" encoding="utf-8"?>
<svg version="1.1" xmlns:xlink="http://www.w3.org/1999/xlink" width="235px" height="40px" xmlns="http://www.w3.org/2000/svg">
  <defs>
    <mask fill="white" id="clip23">
      <path d="M 0 35  L 0 5  C 0 2.19999999999999  3.69285714285715 0  8.39285714285714 0  L 226.607142857143 0  C 231.307142857143 0  235 2.19999999999999  235 5  L 235 35  C 235 37.8  231.307142857143 40  226.607142857143 40  L 126.852040816327 40  L 56.5119047619047 40  L 27.7363945578231 40  L 8.39285714285714 40  C 3.69285714285715 40  0 37.8  0 35  Z " fill-rule="evenodd" />
    </mask>
  </defs>
  <g transform="matrix(1 0 0 1 -41 -160 )">
    <path d="M 0 35  L 0 5  C 0 2.19999999999999  3.69285714285715 0  8.39285714285714 0  L 226.607142857143 0  C 231.307142857143 0  235 2.19999999999999  235 5  L 235 35  C 235 37.8  231.307142857143 40  226.607142857143 40  L 126.852040816327 40  L 56.5119047619047 40  L 27.7363945578231 40  L 8.39285714285714 40  C 3.69285714285715 40  0 37.8  0 35  Z " fill-rule="nonzero" fill="#ffffff" stroke="none" transform="matrix(1 0 0 1 41 160 )" />
    <path d="M 0 35  L 0 5  C 0 2.19999999999999  3.69285714285715 0  8.39285714285714 0  L 226.607142857143 0  C 231.307142857143 0  235 2.19999999999999  235 5  L 235 35  C 235 37.8  231.307142857143 40  226.607142857143 40  L 126.852040816327 40  L 56.5119047619047 40  L 27.7363945578231 40  L 8.39285714285714 40  C 3.69285714285715 40  0 37.8  0 35  Z " stroke-width="2" stroke="#ffffff" fill="none" transform="matrix(1 0 0 1 41 160 )" mask="url(#clip23)" />
  </g>
</svg>