<?xml version="1.0" encoding="utf-8"?>
<svg version="1.1" xmlns:xlink="http://www.w3.org/1999/xlink" width="92px" height="25px" xmlns="http://www.w3.org/2000/svg">
  <defs>
    <mask fill="white" id="clip24">
      <path d="M 0 20  L 0 5  C 0 2.2  2.20000000000005 0  5 0  L 19.8717948717948 0  L 87 0  C 89.8 0  92 2.2  92 5  L 92 20  C 92 22.8  89.8 25  87 25  L 5 25  C 2.20000000000005 25  0 22.8  0 20  Z " fill-rule="evenodd" />
    </mask>
  </defs>
  <g transform="matrix(1 0 0 1 -1101 -51 )">
    <path d="M 0 20  L 0 5  C 0 2.2  2.20000000000005 0  5 0  L 19.8717948717948 0  L 87 0  C 89.8 0  92 2.2  92 5  L 92 20  C 92 22.8  89.8 25  87 25  L 5 25  C 2.20000000000005 25  0 22.8  0 20  Z " fill-rule="nonzero" fill="#ffffff" stroke="none" transform="matrix(1 0 0 1 1101 51 )" />
    <path d="M 0 20  L 0 5  C 0 2.2  2.20000000000005 0  5 0  L 19.8717948717948 0  L 87 0  C 89.8 0  92 2.2  92 5  L 92 20  C 92 22.8  89.8 25  87 25  L 5 25  C 2.20000000000005 25  0 22.8  0 20  Z " stroke-width="6" stroke="#81d3f8" fill="none" transform="matrix(1 0 0 1 1101 51 )" mask="url(#clip24)" />
  </g>
</svg>