<?xml version="1.0" encoding="utf-8"?>
<svg version="1.1" xmlns:xlink="http://www.w3.org/1999/xlink" width="94px" height="41px" xmlns="http://www.w3.org/2000/svg">
  <defs>
    <mask fill="white" id="clip37">
      <path d="M 0 35.875  L 0 5.125  C 0 2.25500000000009  1.64126984126987 0  3.73015873015868 0  L 61.1 0  L 77.55 0  L 90.2698412698413 0  C 92.3587301587301 0  94 2.25500000000009  94 5.125  L 94 35.875  C 94 38.7449999999999  92.3587301587301 41  90.2698412698413 41  L 83.957264957265 41  L 3.73015873015868 41  C 1.64126984126987 41  0 38.7449999999999  0 35.875  Z " fill-rule="evenodd" />
    </mask>
  </defs>
  <g transform="matrix(1 0 0 1 -1004 -621 )">
    <path d="M 0 35.875  L 0 5.125  C 0 2.25500000000009  1.64126984126987 0  3.73015873015868 0  L 61.1 0  L 77.55 0  L 90.2698412698413 0  C 92.3587301587301 0  94 2.25500000000009  94 5.125  L 94 35.875  C 94 38.7449999999999  92.3587301587301 41  90.2698412698413 41  L 83.957264957265 41  L 3.73015873015868 41  C 1.64126984126987 41  0 38.7449999999999  0 35.875  Z " fill-rule="nonzero" fill="#aaaaaa" stroke="none" transform="matrix(1 0 0 1 1004 621 )" />
    <path d="M 0 35.875  L 0 5.125  C 0 2.25500000000009  1.64126984126987 0  3.73015873015868 0  L 61.1 0  L 77.55 0  L 90.2698412698413 0  C 92.3587301587301 0  94 2.25500000000009  94 5.125  L 94 35.875  C 94 38.7449999999999  92.3587301587301 41  90.2698412698413 41  L 83.957264957265 41  L 3.73015873015868 41  C 1.64126984126987 41  0 38.7449999999999  0 35.875  Z " stroke-width="2" stroke="#555555" fill="none" transform="matrix(1 0 0 1 1004 621 )" mask="url(#clip37)" />
  </g>
</svg>