<?xml version="1.0" encoding="utf-8"?>
<svg version="1.1" xmlns:xlink="http://www.w3.org/1999/xlink" width="26px" height="29px" xmlns="http://www.w3.org/2000/svg">
  <g transform="matrix(1 0 0 1 -989 -444 )">
    <path d="M 19.703125 26.224609375  C 19.9010416666667 25.9854600694444  20 25.7022569444444  20 25.375  C 20 25.0477430555556  19.9010416666667 24.7645399305556  19.703125 24.525390625  C 19.5052083333333 24.2862413194444  19.2708333333333 24.1666666666667  19 24.1666666666667  C 18.7291666666667 24.1666666666667  18.4947916666667 24.2862413194444  18.296875 24.525390625  C 18.0989583333333 24.7645399305556  18 25.0477430555556  18 25.375  C 18 25.7022569444444  18.0989583333333 25.9854600694444  18.296875 26.224609375  C 18.4947916666667 26.4637586805556  18.7291666666667 26.5833333333333  19 26.5833333333333  C 19.2708333333333 26.5833333333333  19.5052083333333 26.4637586805556  19.703125 26.224609375  Z M 23.703125 26.224609375  C 23.9010416666667 25.9854600694444  24 25.7022569444444  24 25.375  C 24 25.0477430555556  23.9010416666667 24.7645399305556  23.703125 24.525390625  C 23.5052083333333 24.2862413194444  23.2708333333333 24.1666666666667  23 24.1666666666667  C 22.7291666666667 24.1666666666667  22.4947916666667 24.2862413194444  22.296875 24.525390625  C 22.0989583333333 24.7645399305556  22 25.0477430555556  22 25.375  C 22 25.7022569444444  22.0989583333333 25.9854600694444  22.296875 26.224609375  C 22.4947916666667 26.4637586805556  22.7291666666667 26.5833333333333  23 26.5833333333333  C 23.2708333333333 26.5833333333333  23.5052083333333 26.4637586805556  23.703125 26.224609375  Z M 25.5625 19.8619791666667  C 25.8541666666667 20.2144097222222  26 20.6423611111111  26 21.1458333333333  L 26 27.1875  C 26 27.6909722222222  25.8541666666667 28.1189236111111  25.5625 28.4713541666667  C 25.2708333333333 28.8237847222222  24.9166666666667 29  24.5 29  L 1.5 29  C 1.08333333333333 29  0.729166666666667 28.8237847222222  0.4375 28.4713541666667  C 0.145833333333333 28.1189236111111  0 27.6909722222222  0 27.1875  L 0 21.1458333333333  C 0 20.6423611111111  0.145833333333333 20.2144097222222  0.4375 19.8619791666667  C 0.729166666666667 19.5095486111111  1.08333333333333 19.3333333333333  1.5 19.3333333333333  L 8.765625 19.3333333333333  L 10.875 21.9010416666667  C 11.4791666666667 22.6059027777778  12.1875 22.9583333333333  13 22.9583333333333  C 13.8125 22.9583333333333  14.5208333333333 22.6059027777778  15.125 21.9010416666667  L 17.25 19.3333333333333  L 24.5 19.3333333333333  C 24.9166666666667 19.3333333333333  25.2708333333333 19.5095486111111  25.5625 19.8619791666667  Z M 20 9.66666666666667  C 20.4375 9.66666666666667  20.7447916666667 9.912109375  20.921875 10.4029947916667  C 21.0989583333333 10.9190538194444  21.0260416666667 11.3595920138889  20.703125 11.724609375  L 13.703125 20.1829427083333  C 13.515625 20.4220920138889  13.28125 20.5416666666667  13 20.5416666666667  C 12.71875 20.5416666666667  12.484375 20.4220920138889  12.296875 20.1829427083333  L 5.296875 11.724609375  C 4.97395833333333 11.3595920138889  4.90104166666667 10.9190538194444  5.078125 10.4029947916667  C 5.25520833333333 9.912109375  5.5625 9.66666666666667  6 9.66666666666667  L 10 9.66666666666667  L 10 1.20833333333333  C 10 0.881076388888885  10.0989583333333 0.597873263888885  10.296875 0.358723958333332  C 10.4947916666667 0.11957465277778  10.7291666666667 0  11 0  L 15 0  C 15.2708333333333 0  15.5052083333333 0.11957465277778  15.703125 0.358723958333332  C 15.9010416666667 0.597873263888885  16 0.881076388888885  16 1.20833333333333  L 16 9.66666666666667  L 20 9.66666666666667  Z " fill-rule="nonzero" fill="#95f204" stroke="none" transform="matrix(1 0 0 1 989 444 )" />
  </g>
</svg>