<?xml version="1.0" encoding="utf-8"?>
<svg version="1.1" xmlns:xlink="http://www.w3.org/1999/xlink" width="442px" height="40px" xmlns="http://www.w3.org/2000/svg">
  <defs>
    <mask fill="white" id="clip25">
      <path d="M 0 35  L 0 5  C 0 2.19999999999999  6.9457142857143 0  15.7857142857143 0  L 426.214285714286 0  C 435.054285714286 0  442 2.19999999999999  442 5  L 442 35  C 442 37.8  435.054285714286 40  426.214285714286 40  L 238.589795918367 40  L 106.290476190476 40  L 52.1680272108843 40  L 15.7857142857143 40  C 6.9457142857143 40  0 37.8  0 35  Z " fill-rule="evenodd" />
    </mask>
  </defs>
  <g transform="matrix(1 0 0 1 -100 -149 )">
    <path d="M 0 35  L 0 5  C 0 2.19999999999999  6.9457142857143 0  15.7857142857143 0  L 426.214285714286 0  C 435.054285714286 0  442 2.19999999999999  442 5  L 442 35  C 442 37.8  435.054285714286 40  426.214285714286 40  L 238.589795918367 40  L 106.290476190476 40  L 52.1680272108843 40  L 15.7857142857143 40  C 6.9457142857143 40  0 37.8  0 35  Z " fill-rule="nonzero" fill="#ffffff" stroke="none" transform="matrix(1 0 0 1 100 149 )" />
    <path d="M 0 35  L 0 5  C 0 2.19999999999999  6.9457142857143 0  15.7857142857143 0  L 426.214285714286 0  C 435.054285714286 0  442 2.19999999999999  442 5  L 442 35  C 442 37.8  435.054285714286 40  426.214285714286 40  L 238.589795918367 40  L 106.290476190476 40  L 52.1680272108843 40  L 15.7857142857143 40  C 6.9457142857143 40  0 37.8  0 35  Z " stroke-width="2" stroke="#ffffff" fill="none" transform="matrix(1 0 0 1 100 149 )" mask="url(#clip25)" />
  </g>
</svg>