<?xml version="1.0" encoding="utf-8"?>
<svg version="1.1" xmlns:xlink="http://www.w3.org/1999/xlink" width="200px" height="40px" xmlns="http://www.w3.org/2000/svg">
  <defs>
    <mask fill="white" id="clip6">
      <path d="M 0 35  L 0 5  C 0 2.19999999999999  3.14285714285715 0  7.14285714285714 0  L 192.857142857143 0  C 196.857142857143 0  200 2.19999999999999  200 5  L 200 35  C 200 37.8  196.857142857143 40  192.857142857143 40  L 107.959183673469 40  L 48.0952380952381 40  L 23.6054421768707 40  L 7.14285714285714 40  C 3.14285714285715 40  0 37.8  0 35  Z " fill-rule="evenodd" />
    </mask>
  </defs>
  <g transform="matrix(1 0 0 1 -100 -322 )">
    <path d="M 0 35  L 0 5  C 0 2.19999999999999  3.14285714285715 0  7.14285714285714 0  L 192.857142857143 0  C 196.857142857143 0  200 2.19999999999999  200 5  L 200 35  C 200 37.8  196.857142857143 40  192.857142857143 40  L 107.959183673469 40  L 48.0952380952381 40  L 23.6054421768707 40  L 7.14285714285714 40  C 3.14285714285715 40  0 37.8  0 35  Z " fill-rule="nonzero" fill="#ffffff" stroke="none" transform="matrix(1 0 0 1 100 322 )" />
    <path d="M 0 35  L 0 5  C 0 2.19999999999999  3.14285714285715 0  7.14285714285714 0  L 192.857142857143 0  C 196.857142857143 0  200 2.19999999999999  200 5  L 200 35  C 200 37.8  196.857142857143 40  192.857142857143 40  L 107.959183673469 40  L 48.0952380952381 40  L 23.6054421768707 40  L 7.14285714285714 40  C 3.14285714285715 40  0 37.8  0 35  Z " stroke-width="2" stroke="#ffffff" fill="none" transform="matrix(1 0 0 1 100 322 )" mask="url(#clip6)" />
  </g>
</svg>